<?xml version="1.0" encoding="UTF-8"?>
<svg width="512px" height="512px" viewBox="0 0 512 512" version="1.1" xmlns="http://www.w3.org/2000/svg" xmlns:xlink="http://www.w3.org/1999/xlink">
    <!-- Generator: Sketch 54.1 (76490) - https://sketchapp.com -->
    <title>Artboard</title>
    <desc>Created with Sketch.</desc>
    <defs>
        <radialGradient cx="100%" cy="50%" fx="100%" fy="50%" r="100%" id="radialGradient-1">
            <stop stop-color="#E53935" offset="0%"></stop>
            <stop stop-color="#E35D5B" offset="100%"></stop>
        </radialGradient>
    </defs>
    <g id="Artboard" stroke="none" stroke-width="1" fill="none" fill-rule="evenodd">
        <circle id="Oval" fill="url(#radialGradient-1)" cx="256" cy="256" r="256"></circle>
        <g id="Original" transform="translate(74.000000, 120.000000)" fill="#FFFFFF" fill-rule="nonzero">
            <path d="M394.664104,68.0952684 C384.469841,32.7697359 248.259571,27.3595192 219.902345,22.9040466 C175.614093,15.9025897 131.166531,9.85587695 86.5596594,4.92303232 C66.8051875,2.69529603 34.7838258,-4.94265694 15.8259052,4.92303232 C15.3479744,4.60478428 14.7107334,4.12741222 14.2328026,3.80916418 C10.2500462,1.10405583 6.26728972,3.80916418 4.67418714,7.46901664 C1.64729225,8.26463674 -0.742361605,10.9697451 0.213499939,14.4704735 C29.0486565,108.51277 52.3079541,212.579879 111.57137,292.937509 C115.872747,298.665974 122.563778,299.779842 128.139637,295.006121 C144.707903,281.003207 160.638929,266.524513 176.410645,251.724388 C177.366506,254.590211 179.75616,257.134604 183.260986,257.454444 C212.733383,259.841304 245.073365,264.137653 273.271281,274.639838 C273.906929,275.594582 274.38486,276.549326 275.023694,277.663194 C280.440243,286.574139 293.344373,282.436915 293.981614,272.571226 C295.256097,248.861747 293.981614,225.311392 292.547822,201.600321 C291.27334,180.755075 293.185063,157.841216 289.361617,137.474932 C289.361617,137.156684 289.042997,136.838436 289.042997,136.520188 C300.513335,133.81508 312.620915,124.904135 321.542289,119.812166 C341.774692,108.355237 361.051233,95.3070671 381.602256,84.1683856 C384.15122,82.8953935 385.424109,80.9859052 386.22066,78.917293 C386.381564,78.917293 386.539281,78.917293 386.539281,78.917293 C391.957423,78.5974537 396.257207,73.6646091 394.664104,68.0952684 Z M170.038234,99.1244523 C189.155465,109.30839 246.347848,153.067495 269.447835,140.17845 C271.518868,139.064581 272.47473,136.995969 272.79335,134.768233 C272.954254,134.927357 273.272874,134.927357 273.430591,135.086481 C272.952661,135.722977 272.47473,136.518597 272.156109,137.314217 C266.26163,154.340487 270.402103,175.981354 271.518868,193.484996 C272.476323,208.442654 273.430591,223.400312 273.749212,238.35797 C261.163701,219.422212 248.259571,200.645577 234.399578,182.505439 C234.558889,180.436827 234.080958,178.049966 232.169235,175.981354 C200.147873,142.406186 158.569489,113.922986 122.085847,85.2806625 C108.863095,74.9376012 95.6403441,64.4354159 82.4175927,54.0923546 C111.73068,68.7317644 140.884457,83.5302983 170.038234,99.1244523 Z M122.563778,271.774014 C73.1775978,199.21187 57.8838131,112.013498 22.1983155,33.0879839 C29.8452078,39.2938207 39.5631335,45.4996575 43.5458899,48.5230139 C65.0527747,65.549284 85.9224184,83.0529263 107.747924,99.9200724 C142.47756,126.812032 175.773404,162.77406 214.326486,184.733175 C184.216847,214.328652 154.266519,243.927311 122.563778,271.774014 Z M186.765811,241.858698 C201.422355,227.854193 215.919588,213.693747 230.257512,199.372585 C238.700955,216.080607 247.94095,232.152133 257.340255,248.223659 C234.399578,242.017823 208.272696,238.515503 186.765811,241.858698 Z M313.895397,98.0105842 C304.653809,103.579925 295.256097,109.149266 286.175412,114.87773 C282.989207,116.946343 279.643691,118.696707 276.616796,120.765319 C274.067832,122.515683 268.332663,127.13028 273.589902,126.175536 C272.157702,126.493784 271.361151,127.448528 270.88322,128.562396 C270.403696,128.085024 270.086669,127.607652 269.607145,127.289404 C234.877509,107.398901 197.600502,90.3726312 162.072721,71.5959968 C140.247216,60.1390673 118.421711,45.9770295 95.7996543,33.883604 C136.105149,37.8617045 177.844437,38.8164486 214.167176,44.3857893 C251.923707,50.2733781 289.519334,56.7974629 326.799528,64.4354159 C335.561592,66.1857801 345.598138,69.8456326 355.634684,73.028113 C341.456071,81.143438 327.753796,89.7361351 313.895397,98.0105842 Z" id="Shape"></path>
        </g>
    </g>
</svg>